<?xml version="1.0" standalone="no"?>
<!DOCTYPE svg PUBLIC "-//W3C//DTD SVG 20010904//EN"
 "http://www.w3.org/TR/2001/REC-SVG-20010904/DTD/svg10.dtd">
<svg version="1.0" xmlns="http://www.w3.org/2000/svg"
 width="700.000000pt" height="700.000000pt" viewBox="0 0 700.000000 700.000000"
 preserveAspectRatio="xMidYMid meet">
<metadata>
Created by potrace 1.14, written by Peter Selinger 2001-2017
</metadata>
<g transform="translate(0.000000,700.000000) scale(0.100000,-0.100000)"
fill="#000000" stroke="none">
<path d="M2133 5561 c-51 -32 -55 -48 -55 -229 0 -251 -3 -230 39 -269 34 -32
40 -35 81 -29 32 4 52 14 68 33 29 34 27 17 30 238 2 191 -5 227 -46 253 -36
22 -83 24 -117 3z"/>
<path d="M3096 5192 c-22 -3 -64 -37 -164 -135 -73 -73 -138 -139 -142 -148
-38 -69 3 -151 80 -162 20 -3 45 0 58 7 33 18 271 256 286 286 22 45 8 100
-32 128 -35 24 -50 28 -86 24z"/>
<path d="M1197 5172 c-32 -20 -53 -77 -43 -117 4 -16 63 -83 145 -165 153
-153 174 -165 239 -133 42 20 70 80 59 125 -6 23 -152 178 -255 271 -48 42
-97 49 -145 19z"/>
<path d="M3218 4818 c-187 -17 -356 -96 -485 -224 l-31 -31 -27 32 c-61 78
-194 160 -313 193 -87 25 -262 28 -323 7 -21 -8 -39 -12 -39 -10 0 9 -131 -54
-181 -88 -61 -40 -189 -171 -189 -193 0 -3 -10 -20 -22 -37 -13 -18 -22 -34
-22 -37 1 -3 -3 -16 -8 -30 -79 -204 -51 -448 73 -620 18 -25 37 -48 43 -52 6
-4 7 -8 3 -8 -7 0 31 -35 101 -92 12 -9 35 -24 52 -33 35 -18 37 -28 10 -55
-11 -11 -20 -22 -20 -25 0 -3 -16 -31 -35 -61 -19 -30 -35 -59 -35 -65 0 -6
-4 -7 -10 -4 -6 3 -7 -1 -4 -10 4 -8 2 -21 -3 -28 -17 -22 -39 -105 -49 -182
-33 -260 47 -495 229 -678 87 -87 116 -107 232 -161 156 -73 95 -70 1214 -72
1125 -1 1078 -4 1263 72 48 19 92 33 98 29 6 -4 9 -1 8 7 -2 7 5 12 15 11 10
0 16 2 13 5 -3 3 22 24 57 46 165 108 304 274 376 450 18 43 34 86 37 95 2 9
8 34 13 56 30 123 31 242 5 410 -9 56 -64 204 -100 267 -214 380 -618 559
-1064 473 -33 -6 -36 -4 -38 19 -3 40 -57 173 -99 246 -21 35 -77 103 -124
151 -145 146 -293 212 -519 232 -14 2 -60 -1 -102 -5z"/>
<path d="M844 4258 c-84 -22 -104 -138 -33 -189 29 -21 43 -22 213 -24 236 -2
274 12 284 100 5 49 -12 86 -50 106 -27 15 -364 20 -414 7z"/>
<path d="M1435 3551 c-37 -23 -267 -255 -277 -279 -17 -43 -8 -84 26 -118 35
-35 74 -43 120 -25 25 10 286 273 286 288 0 7 4 13 9 13 17 0 -10 85 -35 111
-31 32 -87 37 -129 10z"/>
</g>
</svg>
